HIERARCHY
ROOT Hips
{
	OFFSET	0.00	0.00	0.00
	CHANNELS 6 Xposition Yposition Zposition Zrotation Xrotation Yrotation
	JOINT LeftUpLeg
	{
		OFFSET	 0.126116	-0.014019	-0.065224
		CHANNELS 3 Zrotation Xrotation Yrotation
		JOINT LeftLeg
		{
			OFFSET	 0.000000	 0.000000	 0.569914
			CHANNELS 3 Zrotation Xrotation Yrotation
			JOINT LeftFoot
			{
				OFFSET	 0.000000	 0.000000	 0.544423
				CHANNELS 3 Zrotation Xrotation Yrotation
				JOINT LeftToeBase
				{
					OFFSET	 0.000000	 0.000000	 0.207117
					CHANNELS 3 Zrotation Xrotation Yrotation
					End Site
					{
						OFFSET	 0.000000	 0.000000	 0.207117
					}
				}
			}
		}
	}
	JOINT RightUpLeg
	{
		OFFSET	-0.124023	-0.008373	-0.065224
		CHANNELS 3 Zrotation Xrotation Yrotation
		JOINT RightLeg
		{
			OFFSET	 0.000000	 0.000000	 0.570047
			CHANNELS 3 Zrotation Xrotation Yrotation
			JOINT RightFoot
			{
				OFFSET	 0.000000	 0.000000	 0.544354
				CHANNELS 3 Zrotation Xrotation Yrotation
				JOINT RightToeBase
				{
					OFFSET	 0.000000	 0.000000	 0.207540
					CHANNELS 3 Zrotation Xrotation Yrotation
					End Site
					{
						OFFSET	 0.000000	 0.000000	 0.207540
					}
				}
			}
		}
	}
	JOINT Spine
	{
		OFFSET	 0.000184	-0.007763	 0.117403
		CHANNELS 3 Zrotation Xrotation Yrotation
		JOINT Spine1
		{
			OFFSET	 0.000000	 0.000000	 0.137269
			CHANNELS 3 Zrotation Xrotation Yrotation
			JOINT Spine2
			{
				OFFSET	 0.000000	 0.000000	 0.156879
				CHANNELS 3 Zrotation Xrotation Yrotation
				JOINT LeftShoulder
				{
					OFFSET	 0.080501	-0.002496	 0.160144
					CHANNELS 3 Zrotation Xrotation Yrotation
					JOINT LeftArm
					{
						OFFSET	 0.000000	 0.000000	 0.164363
						CHANNELS 3 Zrotation Xrotation Yrotation
						JOINT LeftForeArm
						{
							OFFSET	 0.000000	 0.000000	 0.364576
							CHANNELS 3 Zrotation Xrotation Yrotation
							JOINT LeftHand
							{
								OFFSET	 0.000000	 0.000000	 0.360812
								CHANNELS 3 Zrotation Xrotation Yrotation
								JOINT LeftHandIndex1
								{
									OFFSET	 0.000000	 0.000000	 0.086006
									CHANNELS 3 Zrotation Xrotation Yrotation
									JOINT LeftHandIndex2
									{
										OFFSET	 0.000000	 0.000000	 0.047236
										CHANNELS 3 Zrotation Xrotation Yrotation
										JOINT LeftHandIndex3
										{
											OFFSET	-0.004284	-0.000551	 0.038166
											CHANNELS 3 Zrotation Xrotation Yrotation
											End Site
											{
												OFFSET	-0.004284	-0.000551	 0.038166
											}
										}
									}
								}
							}
						}
					}
				}
				JOINT Neck
				{
					OFFSET	 0.000000	 0.000000	 0.176489
					CHANNELS 3 Zrotation Xrotation Yrotation
					JOINT Head
					{
						OFFSET	 0.000000	-0.001747	 0.077940
						CHANNELS 3 Zrotation Xrotation Yrotation
						End Site
						{
							OFFSET	 0.000000	-0.001747	 0.077940
						}
					}
				}
				JOINT RightShoulder
				{
					OFFSET	-0.080363	 0.000306	 0.159706
					CHANNELS 3 Zrotation Xrotation Yrotation
					JOINT RightArm
					{
						OFFSET	 0.000000	 0.000000	 0.164196
						CHANNELS 3 Zrotation Xrotation Yrotation
						JOINT RightForeArm
						{
							OFFSET	 0.000000	 0.000000	 0.365611
							CHANNELS 3 Zrotation Xrotation Yrotation
							JOINT RightHand
							{
								OFFSET	 0.000000	 0.000000	 0.360648
								CHANNELS 3 Zrotation Xrotation Yrotation
								JOINT RightHandIndex1
								{
									OFFSET	 0.000000	 0.000000	 0.069977
									CHANNELS 3 Zrotation Xrotation Yrotation
									JOINT RightHandIndex2
									{
										OFFSET	 0.000000	 0.000000	 0.052305
										CHANNELS 3 Zrotation Xrotation Yrotation
										JOINT RightHandIndex3
										{
											OFFSET	 0.009002	-0.000782	 0.042196
											CHANNELS 3 Zrotation Xrotation Yrotation
											End Site
											{
												OFFSET	 0.009002	-0.000782	 0.042196
											}
										}
									}
								}
							}
						}
					}
				}
			}
		}
	}
}
MOTION
Frames:    12
Frame Time: 0.03333334
 0.011478	 0.054514	 1.199507	 4.616138	-1.609312	-3.689301	 9.901591	-10.950000	-173.220900	 0.719493	-39.396110	 0.186603	 58.278500	 81.925640	-61.959680	-2.370440	 31.440560	-0.065978	-13.669440	-31.155880	-174.713500	 10.659220	-52.584610	 9.112432	 10.310210	 74.124760	-5.163141	 2.358369	 33.088300	 0.105276	 1.428331	 8.870315	 0.788471	 1.945728	 3.236899	 3.436121	-9.483027	-2.598760	-4.390303	-93.864690	 58.901220	 175.553400	 15.665140	 34.004170	-39.212970	-1.196191	-0.050878	-0.601014	 0.861561	-5.806190	-6.711109	-4.870529	 19.224150	-2.787764	-3.882574	 21.459430	 2.203822	-4.807166	 5.558431	 0.146214	-0.098582	-5.048069	 0.172574	-11.454550	 1.658008	 2.063315	 89.803250	 61.617750	-179.949600	-19.102620	 50.253480	 8.752021	-1.073317	-2.458297	 13.249290	-4.946577	 8.608778	 0.663946	 6.298041	 25.333460	-0.557143	 1.820141	 45.223560	-6.934770	 0.455269	 24.586820	 3.604415
 0.011140	 0.047359	 1.198228	 4.858517	-1.493052	-3.682414	 9.658209	-10.842220	-173.329800	 0.816495	-39.619460	 0.295744	 60.595990	 82.213190	-64.404510	-2.370023	 31.510820	-0.067571	-14.332080	-31.937300	-174.917000	 10.787220	-52.005180	 9.145053	 11.138630	 75.425060	-6.202611	 2.358619	 33.052190	 0.104435	 0.957148	 8.831298	 0.757422	 1.933016	 3.142693	 3.451003	-9.513510	-2.545513	-4.373353	-93.909520	 58.927050	 175.454600	 15.459650	 33.479790	-39.433240	-1.567872	-0.047103	-0.651701	 0.954737	-5.854268	-7.106806	-4.870327	 19.233470	-2.789271	-3.880611	 21.484540	 2.201827	-4.806710	 5.563753	 0.145899	-0.085181	-5.064056	 0.179413	-11.442780	 1.685259	 2.011359	 89.789190	 61.635250	-179.983100	-19.014970	 50.449470	 8.231396	-1.002070	-2.500087	 13.609590	-4.924139	 8.765678	 0.608190	 6.295053	 25.014780	-0.547461	 1.863729	 44.876030	-6.973701	 0.505157	 24.368760	 3.578990
 0.010242	 0.027193	 1.195026	 5.389730	-1.128679	-3.685115	 9.268421	-10.424370	-173.581300	 1.121263	-40.031190	 0.494348	 67.054940	 82.875830	-71.077630	-2.369107	 31.663560	-0.071033	-15.988390	-33.916800	-175.570900	 11.052590	-49.898290	 9.087086	 12.061210	 77.698760	-7.632166	 2.358938	 33.003720	 0.103318	-0.125424	 8.649465	 0.680086	 1.880970	 2.985613	 3.506942	-9.582843	-2.458393	-4.351863	-94.024250	 58.967090	 175.204900	 14.738150	 32.062690	-39.986690	-2.269169	-0.038418	-0.775261	 1.261995	-6.013579	-7.783724	-4.867910	 19.300740	-2.794749	-3.874789	 21.558910	 2.195909	-4.805393	 5.579329	 0.144987	-0.056743	-5.091988	 0.205823	-11.423380	 1.752067	 1.919006	 89.748470	 61.699650	 179.919700	-18.811230	 50.978180	 6.943147	-0.938994	-2.591292	 14.301800	-4.944611	 9.138770	 0.449621	 6.285489	 24.205060	-0.542461	 1.965886	 44.042480	-7.064638	 0.658471	 23.693240	 3.501811
 0.009222	 0.004126	 1.191642	 5.865032	-0.693854	-3.706505	 8.889016	-9.834771	-173.864700	 1.324503	-40.269030	 0.628177	 74.731560	 83.469100	-78.874150	-2.368284	 31.798720	-0.074095	-17.716110	-35.759000	-176.452800	 11.155150	-46.843730	 8.749275	 12.346960	 79.331110	-8.482840	 2.359033	 32.991100	 0.103015	-1.152184	 8.390382	 0.600498	 1.805722	 2.893618	 3.578374	-9.644192	-2.410093	-4.346732	-94.143070	 58.986400	 174.949000	 13.816070	 30.521850	-40.553940	-2.782887	-0.029639	-0.895431	 1.634126	-6.208622	-8.199834	-4.863725	 19.407630	-2.801754	-3.868067	 21.644620	 2.189082	-4.803884	 5.597146	 0.143944	-0.032335	-5.109805	 0.240799	-11.409430	 1.819130	 1.858125	 89.702370	 61.783130	 179.809000	-18.602930	 51.532020	 5.718924	-0.983612	-2.637039	 14.622570	-5.029720	 9.501685	 0.270755	 6.273747	 23.370910	-0.554175	 2.062753	 43.226460	-7.150460	 0.837868	 22.892530	 3.413417
 0.008218	-0.020932	 1.188030	 6.195063	-0.275813	-3.824947	 8.642743	-8.965041	-174.100100	 1.474151	-40.259590	 0.724784	 84.051020	 83.969800	-88.258620	-2.367188	 31.977760	-0.078171	-18.984530	-37.243930	-177.301000	 11.052700	-42.981350	 8.113368	 11.583090	 79.469440	-8.323479	 2.359798	 32.876660	 0.100366	-2.089866	 8.104708	 0.625295	 1.727552	 2.931040	 3.621160	-9.683272	-2.397549	-4.338403	-94.248520	 58.991680	 174.723500	 12.781130	 28.938920	-41.165490	-3.456956	-0.017878	-1.014895	 1.759319	-6.487513	-8.211576	-4.857012	 19.565320	-2.809271	-3.859960	 21.747750	 2.180840	-4.800256	 5.639875	 0.141441	-0.016626	-5.138251	 0.274326	-11.399380	 1.882366	 1.831934	 89.643020	 61.863460	 179.665800	-18.350610	 52.042810	 4.697190	-1.189822	-2.628643	 14.459400	-5.197214	 9.886947	-0.096477	 6.259339	 22.464260	-0.578541	 2.152959	 42.443380	-7.229989	 1.039540	 21.979240	 3.316543
 0.007210	-0.047150	 1.183972	 6.418856	 0.133730	-4.019214	 8.500228	-7.916946	-174.291900	 1.583841	-40.085830	 0.792835	 94.913810	 84.315730	-99.155460	-2.365844	 32.193120	-0.083083	-19.870860	-38.356110	-178.075100	 10.891870	-38.536910	 7.319664	 9.942687	 78.487560	-7.293154	 2.361100	 32.683210	 0.095880	-2.974565	 7.795551	 0.730559	 1.649625	 3.036193	 3.641971	-9.703175	-2.398072	-4.324109	-94.345730	 58.986330	 174.517100	 11.717540	 27.404790	-41.778050	-4.267184	-0.003406	-1.136588	 1.704121	-6.835210	-7.914852	-4.848228	 19.764150	-2.817351	-3.850652	 21.865800	 2.171387	-4.794957	 5.702215	 0.137786	-0.007256	-5.175211	 0.307293	-11.390150	 1.943988	 1.831485	 89.572690	 61.942830	 179.495300	-18.045200	 52.489570	 3.870856	-1.524155	-2.566128	 13.892620	-5.424462	 10.295800	-0.613810	 6.242324	 21.487020	-0.612832	 2.239345	 41.671580	-7.305799	 1.260052	 20.964760	 3.213710
 0.006013	-0.074021	 1.179189	 6.554196	 0.423596	-4.206564	 8.409350	-6.681375	-174.538000	 1.667060	-39.878120	 0.842790	 105.631200	 84.536000	-109.862000	-2.363000	 32.635320	-0.093233	-20.174780	-39.131470	-178.675400	 10.492730	-34.187450	 6.398576	 12.797440	 79.483890	-10.704460	 2.358516	 33.066440	 0.104768	-3.896599	 7.521544	 0.855529	 1.578667	 3.250159	 3.605819	-9.686261	-2.408531	-4.274588	-94.416330	 58.976380	 174.368300	 10.610100	 26.075320	-42.345840	-5.050145	 0.012701	-1.265872	 1.533136	-7.000116	-7.618555	-4.837847	 19.979070	-2.821373	-3.839047	 22.012480	 2.159595	-4.785012	 5.819084	 0.130910	 0.006054	-5.221696	 0.328671	-11.349530	 1.999340	 1.813956	 89.509000	 62.000970	 179.340500	-17.587850	 52.852420	 3.143610	-1.933574	-2.454980	 13.064890	-5.599730	 10.625160	-1.318987	 6.221554	 20.363150	-0.656167	 2.369092	 40.470480	-7.418965	 1.502290	 19.831550	 3.104599
 0.004653	-0.099140	 1.173657	 6.625788	 0.624263	-4.382731	 8.370957	-5.477426	-174.800000	 1.734320	-39.783990	 0.884181	 115.924000	 84.627570	-120.119200	-2.359078	 33.218360	-0.106736	-19.823200	-40.160930	-178.947600	 10.213680	-31.333640	 5.756783	 24.280780	 82.358000	-22.671380	 2.353148	 33.828690	 0.122614	-4.814533	 7.278741	 0.988884	 1.520717	 3.494940	 3.540745	-9.640368	-2.408635	-4.202895	-94.466880	 58.963510	 174.262600	 9.620233	 25.072290	-42.823020	-5.794619	 0.030525	-1.398664	 1.288984	-7.040321	-7.331073	-4.826691	 20.198790	-2.822582	-3.826183	 22.174330	 2.146532	-4.772194	 5.969540	 0.122031	 0.021680	-5.273331	 0.341599	-11.285540	 2.048768	 1.785983	 89.451580	 62.043070	 179.200500	-17.033110	 53.120930	 2.453503	-2.372733	-2.358520	 12.348510	-5.727385	 10.892360	-2.132119	 6.198352	 19.171980	-0.704426	 2.519415	 39.012870	-7.548953	 1.750579	 18.649940	 2.997040
 0.002972	-0.123476	 1.167250	 6.753676	 0.694600	-4.518726	 8.255139	-4.207174	-175.138900	 1.848504	-39.792210	 0.957437	 123.959400	 84.694040	-128.132700	-2.351564	 34.266300	-0.131354	-19.701270	-41.766640	-179.299600	 10.377210	-29.940070	 5.610521	 32.494020	 83.196290	-31.411830	 2.346047	 34.772110	 0.145036	-5.821670	 7.269575	 1.077121	 1.464852	 3.550448	 3.528958	-9.571208	-2.387663	-4.158134	-94.504500	 58.938850	 174.186500	 8.647578	 24.315470	-43.234570	-6.294727	 0.047838	-1.530301	 1.088908	-7.351699	-7.355985	-4.830083	 20.346140	-2.885572	-3.811745	 22.355270	 2.131861	-4.754513	 6.176519	 0.109753	 0.052577	-5.324705	 0.348984	-11.181810	 2.136177	 1.691100	 89.407900	 62.029050	 179.095300	-16.390130	 53.313080	 1.466744	-2.707290	-2.320013	 12.049240	-5.707640	 10.923380	-2.880420	 6.181285	 17.985180	-0.712522	 2.667736	 37.501320	-7.675924	 1.994194	 17.471280	 2.895858
 0.000948	-0.149017	 1.159826	 6.913901	 0.705563	-4.641557	 8.089209	-2.797481	-175.544900	 1.988452	-39.793420	 1.047070	 131.551000	 84.758470	-135.699600	-2.341171	 35.585110	-0.163032	-19.717970	-43.875340	-179.735100	 10.825590	-29.560560	 5.774181	 38.068280	 83.411800	-37.589830	 2.337289	 35.846630	 0.171083	-6.929243	 7.369981	 1.149851	 1.402147	 3.495680	 3.538685	-9.481919	-2.347710	-4.119783	-94.537760	 58.907400	 174.120800	 7.675678	 23.689830	-43.617300	-6.705469	 0.066981	-1.670005	 0.899806	-7.809814	-7.531514	-4.840419	 20.466150	-2.980998	-3.795819	 22.553890	 2.115691	-4.733622	 6.420257	 0.095210	 0.092232	-5.378434	 0.354140	-11.049010	 2.244746	 1.561007	 89.368530	 61.987650	 179.001600	-15.666980	 53.459160	 0.276602	-3.012552	-2.320003	 11.985000	-5.607845	 10.846460	-3.633075	 6.166841	 16.743920	-0.702311	 2.817916	 35.891860	-7.803065	 2.245146	 16.237600	 2.796244
-0.001681	-0.174461	 1.152220	 7.055180	 0.672523	-4.574296	 7.851911	-1.400777	-176.162300	 2.239835	-39.801150	 1.208247	 133.553300	 85.305640	-137.673000	-2.321545	 37.770420	-0.217391	-19.702490	-45.887150	 179.677500	 10.889400	-29.767540	 5.843349	 27.514700	 82.094960	-26.949710	 2.336330	 35.958830	 0.173839	-8.061221	 7.421936	 1.108120	 1.353255	 3.521844	 3.464366	-9.385922	-2.289474	-4.057401	-94.537060	 59.010230	 174.105400	 6.824151	 23.283720	-44.010930	-7.119810	 0.087813	-1.804737	 0.610101	-8.364706	-7.832496	-4.855595	 20.534440	-3.089344	-3.781920	 22.726290	 2.101576	-4.709915	 6.695845	 0.078644	 0.130520	-5.425280	 0.327427	-10.884550	 2.365196	 1.480497	 89.357540	 61.862690	 178.979900	-15.043090	 53.501270	-0.949709	-3.195760	-2.373546	 12.270380	-5.557373	 10.657840	-4.258958	 6.170494	 15.572470	-0.605257	 2.915426	 34.802060	-7.884792	 2.477220	 15.079690	 2.708421
-0.004985	-0.204568	 1.143710	 7.209230	 0.618271	-4.417189	 7.553540	 0.309768	-176.960100	 2.564062	-39.560290	 1.408796	 132.648900	 86.264610	-136.711300	-2.291064	 40.603810	-0.291941	-19.708730	-47.809160	 178.963600	 10.808800	-30.225850	 5.882463	 17.066520	 79.836520	-16.151490	 2.338441	 35.709920	 0.167743	-9.383866	 7.462205	 1.012938	 1.285533	 3.495374	 3.340239	-9.264178	-2.178712	-3.966123	-94.522820	 59.180130	 174.107400	 5.969731	 22.993250	-44.343090	-7.598244	 0.113782	-1.961208	 0.237752	-9.038213	-8.226746	-4.874747	 20.592150	-3.218083	-3.766813	 22.912790	 2.086244	-4.681669	 7.022791	 0.058826	 0.173654	-5.476090	 0.284520	-10.677400	 2.506418	 1.408820	 89.356210	 61.687320	 178.983200	-14.369580	 53.472170	-2.237985	-3.365279	-2.417150	 12.560670	-5.514820	 10.400210	-4.923143	 6.184335	 14.262980	-0.461411	 3.005587	 33.761880	-7.959740	 2.732514	 13.787690	 2.616689
